<svg width="94" height="36" viewBox="0 0 94 36" fill="none" xmlns="http://www.w3.org/2000/svg">
<mask id="mask0_1144_520" style="mask-type:alpha" maskUnits="userSpaceOnUse" x="0" y="0" width="94" height="36">
<rect width="94" height="36" fill="#D9D9D9"/>
</mask>
<g mask="url(#mask0_1144_520)">
<path d="M90.9341 25.5303C91.1046 25.5303 91.1898 25.601 91.1898 25.7425V25.8031C91.1898 25.9143 91.0945 26.0659 90.904 26.2579C90.7135 26.4397 90.5681 26.6419 90.4679 26.8642L87.6253 33.1395C87.4448 33.5539 87.2894 33.8823 87.1591 34.1248C87.0387 34.3673 86.8583 34.6604 86.6176 35.004C86.387 35.3475 86.1213 35.6052 85.8205 35.777C85.5197 35.9488 85.1938 36.0347 84.8429 36.0347C84.2513 36.0347 83.765 35.8781 83.384 35.5648C83.003 35.2616 82.8125 34.9231 82.8125 34.5492C82.8125 34.3269 82.8777 34.145 83.008 34.0035C83.1384 33.8621 83.3188 33.7913 83.5495 33.7913C83.77 33.7913 83.9505 33.8722 84.0909 34.0339C84.2313 34.2056 84.3265 34.3926 84.3767 34.5947C84.4368 34.8069 84.5271 34.9939 84.6474 35.1555C84.7677 35.3273 84.9231 35.4132 85.1136 35.4132C85.635 35.4132 86.1965 34.6604 86.7981 33.1547L83.8653 26.8642C83.755 26.6419 83.5996 26.4397 83.3991 26.2579C83.1985 26.0659 83.0983 25.9143 83.0983 25.8031V25.7425C83.0983 25.601 83.1885 25.5303 83.369 25.5303H85.7453C85.9158 25.5303 86.001 25.6061 86.001 25.7576V25.8031C86.001 25.884 85.9559 25.9749 85.8656 26.076C85.7754 26.177 85.7102 26.273 85.6701 26.364C85.64 26.4549 85.6701 26.6267 85.7603 26.8793L87.7456 31.4722L89.6106 27.0461C89.7008 26.7429 89.7008 26.5357 89.6106 26.4246C89.5203 26.3033 89.395 26.1922 89.2346 26.0911C89.0742 25.98 88.9939 25.884 88.9939 25.8031V25.7576C88.9939 25.6061 89.0842 25.5303 89.2647 25.5303H90.9341Z" fill="white"/>
<path d="M78.4805 32.9572C77.3976 32.9572 76.4802 32.5884 75.7282 31.8507C74.9862 31.1029 74.6152 30.1985 74.6152 29.1374C74.6152 28.0158 74.9812 27.1113 75.7132 26.4242C76.4451 25.737 77.3425 25.3884 78.4053 25.3783C79.2275 25.3682 79.9344 25.5703 80.526 25.9846C81.1276 26.3888 81.4284 26.8537 81.4284 27.3791C81.4284 27.5711 81.3632 27.7328 81.2328 27.8642C81.1125 27.9854 80.922 28.041 80.6613 28.0309C80.4207 28.0208 80.2051 27.9046 80.0146 27.6823C79.8241 27.46 79.6687 27.2225 79.5484 26.9699C79.428 26.7172 79.2425 26.4848 78.9919 26.2726C78.7512 26.0604 78.4605 25.9543 78.1196 25.9543C77.6082 25.9543 77.1921 26.1766 76.8712 26.6212C76.5504 27.0659 76.39 27.6217 76.39 28.2886C76.39 29.3193 76.6356 30.148 77.1269 30.7745C77.6182 31.3909 78.2649 31.6991 79.0671 31.6991C79.9394 31.6991 80.5861 31.2848 81.0072 30.4562C81.0874 30.3349 81.1927 30.2894 81.3231 30.3198C81.4534 30.3501 81.5086 30.441 81.4885 30.5926C81.4083 31.2393 81.1025 31.7951 80.5711 32.26C80.0497 32.7248 79.3528 32.9572 78.4805 32.9572Z" fill="white"/>
<path d="M72.0903 31.532C72.1003 31.7544 72.1906 31.9565 72.361 32.1384C72.5415 32.3101 72.6318 32.4415 72.6318 32.5325V32.5931C72.6318 32.7447 72.5215 32.8205 72.3009 32.8205H70.105C69.8844 32.8205 69.7742 32.7447 69.7742 32.5931V32.5325C69.7742 32.4415 69.8644 32.3101 70.0449 32.1384C70.2354 31.9565 70.3256 31.7544 70.3156 31.532L70.1652 28.6066C70.095 26.9392 69.5686 26.1055 68.586 26.1055C68.1147 26.1055 67.7337 26.2824 67.443 26.636C67.1522 26.9796 67.0068 27.4293 67.0068 27.9851V31.5472C67.0068 31.7695 67.1071 31.9666 67.3076 32.1384C67.5182 32.3101 67.6234 32.4415 67.6234 32.5325V32.5931C67.6234 32.7447 67.5131 32.8205 67.2926 32.8205H64.9614C64.7508 32.8205 64.6455 32.7447 64.6455 32.5931V32.5325C64.6455 32.4415 64.7458 32.3101 64.9463 32.1384C65.1468 31.9666 65.2471 31.7695 65.2471 31.5472V27.4849C65.2471 27.2929 65.187 27.1362 65.0666 27.015C64.9563 26.8937 64.846 26.7977 64.7358 26.727C64.6255 26.6461 64.5703 26.5602 64.5703 26.4693V26.4238C64.5703 26.3228 64.6606 26.2318 64.841 26.151L66.2999 25.4386C66.4603 25.3678 66.5756 25.3628 66.6458 25.4234C66.726 25.4739 66.7662 25.5699 66.7662 25.7114V26.6967C66.9767 26.2824 67.2825 25.959 67.6836 25.7266C68.0847 25.4941 68.5409 25.3779 69.0522 25.3779C69.8243 25.3779 70.476 25.6457 71.0074 26.1813C71.5388 26.7169 71.8396 27.5455 71.9098 28.6672L72.0903 31.532Z" fill="white"/>
<path d="M61.9059 30.5771C61.9861 30.4659 62.0863 30.4255 62.2067 30.4558C62.337 30.4861 62.3972 30.5771 62.3871 30.7287C62.3069 31.2642 61.9961 31.7695 61.4547 32.2445C60.9132 32.7194 60.2063 32.9569 59.334 32.9569C58.3113 32.9569 57.459 32.6032 56.7772 31.8958C56.1054 31.1885 55.7695 30.2588 55.7695 29.1068C55.7695 28.0356 56.1155 27.1464 56.8073 26.439C57.5092 25.7316 58.3614 25.3779 59.3641 25.3779C60.2665 25.3779 60.9583 25.6053 61.4396 26.06C61.9309 26.5047 62.1766 27.02 62.1766 27.6061C62.1766 28.1316 61.9209 28.4853 61.4095 28.6672L57.7699 30.0162C57.9604 30.5417 58.2461 30.951 58.6271 31.244C59.0081 31.5371 59.4593 31.6836 59.9807 31.6836C60.4319 31.6836 60.823 31.5826 61.1539 31.3805C61.4948 31.1682 61.7454 30.9005 61.9059 30.5771ZM59.0633 25.9539C58.592 25.9539 58.216 26.1813 57.9353 26.636C57.6545 27.0908 57.5142 27.687 57.5142 28.4247C57.5142 28.7682 57.5443 29.0916 57.6044 29.3948L60.1011 28.3034C60.3617 28.1821 60.4921 27.9699 60.4921 27.6668C60.4921 27.303 60.3517 26.9291 60.071 26.5451C59.8003 26.151 59.4644 25.9539 59.0633 25.9539Z" fill="white"/>
<path d="M52.8358 25.5295C53.0463 25.5295 53.2067 25.5497 53.317 25.5901C53.4374 25.6306 53.5025 25.6811 53.5126 25.7417C53.5326 25.8024 53.5226 25.8731 53.4825 25.9539C53.4323 26.0752 53.3471 26.1611 53.2268 26.2116C53.1165 26.2621 52.9511 26.3026 52.7305 26.3329C52.5199 26.3632 52.3795 26.3885 52.3094 26.4087C52.5901 26.6613 52.8157 26.9695 52.9862 27.3333C53.1666 27.6971 53.2569 28.0609 53.2569 28.4247C53.2569 29.0209 53.1015 29.5565 52.7906 30.0314C52.4798 30.4962 52.0537 30.855 51.5122 31.1076C52.7555 31.4007 53.3772 32.007 53.3772 32.9266C53.3772 33.5935 53.0363 34.124 52.3545 34.5181C51.6727 34.9224 50.8054 35.1245 49.7526 35.1245C48.6797 35.1245 47.8325 34.9021 47.2108 34.4575C46.5891 34.023 46.2783 33.5127 46.2783 32.9266C46.2783 32.7245 46.3385 32.5577 46.4588 32.4264C46.5891 32.2849 46.7696 32.2141 47.0002 32.2141C47.2008 32.2141 47.3662 32.295 47.4966 32.4567C47.6369 32.6184 47.7573 32.8104 47.8575 33.0327C47.9578 33.2651 48.0731 33.4975 48.2034 33.7299C48.3438 33.9624 48.5494 34.1594 48.8201 34.3211C49.0908 34.4828 49.4217 34.5636 49.8127 34.5636C50.3542 34.5636 50.7853 34.4171 51.1062 34.124C51.437 33.8411 51.6025 33.4672 51.6025 33.0024C51.6025 32.5678 51.4822 32.2091 51.2415 31.9261C51.0109 31.6432 50.6901 31.4815 50.279 31.4411C50.0383 31.4613 49.8528 31.4714 49.7225 31.4714C48.7699 31.4714 47.9678 31.1885 47.3161 30.6226C46.6643 30.0466 46.3385 29.3392 46.3385 28.5005C46.3385 27.5809 46.6593 26.8331 47.301 26.2571C47.9427 25.671 48.775 25.3779 49.7977 25.3779C50.0684 25.3779 50.4845 25.4032 51.046 25.4537C51.6075 25.5042 52.2041 25.5295 52.8358 25.5295ZM48.0831 27.7274C48.0831 28.5864 48.2736 29.3291 48.6546 29.9556C49.0357 30.572 49.4869 30.8802 50.0082 30.8802C50.4695 30.8802 50.8354 30.7135 51.1062 30.38C51.3769 30.0466 51.5122 29.6171 51.5122 29.0916C51.5122 28.2327 51.3217 27.495 50.9407 26.8786C50.5697 26.2621 50.0935 25.9539 49.5119 25.9539C49.0707 25.9539 48.7198 26.1207 48.4591 26.4541C48.2085 26.7775 48.0831 27.2019 48.0831 27.7274Z" fill="white"/>
<path d="M43.6538 31.4411C43.6739 31.6634 43.729 31.8402 43.8193 31.9716C43.9195 32.0929 44.0148 32.1687 44.105 32.199C44.2053 32.2293 44.2905 32.2697 44.3607 32.3202C44.4409 32.3708 44.481 32.4365 44.481 32.5173C44.481 32.7699 44.0749 32.8962 43.2628 32.8962C42.8617 32.8962 42.5659 32.8356 42.3754 32.7144C42.1949 32.583 42.0897 32.3405 42.0596 31.9868C41.6585 32.6335 40.9617 32.9569 39.969 32.9569C39.1268 32.9569 38.445 32.7598 37.9236 32.3657C37.4122 31.9615 37.1565 31.3956 37.1565 30.668C37.1465 29.9506 37.4022 29.3948 37.9236 29.0007C38.445 28.5965 39.1017 28.3944 39.8938 28.3944C40.6157 28.3944 41.1973 28.5661 41.6385 28.9097L41.6084 28.6066C41.5181 27.6769 41.3577 26.9998 41.1271 26.5754C40.8965 26.151 40.5305 25.9388 40.0292 25.9388C39.7183 25.9388 39.4577 26.0348 39.2471 26.2268C39.0466 26.4188 38.9062 26.631 38.826 26.8634C38.7558 27.0857 38.6505 27.2929 38.5101 27.4849C38.3698 27.6769 38.1943 27.7729 37.9837 27.7729C37.7631 27.7729 37.5827 27.7122 37.4423 27.591C37.3119 27.4596 37.2468 27.2878 37.2468 27.0756C37.2468 26.5906 37.5075 26.1864 38.0289 25.863C38.5603 25.5396 39.227 25.3779 40.0292 25.3779C40.9717 25.3779 41.7337 25.6609 42.3153 26.2268C42.8968 26.7826 43.2427 27.5506 43.353 28.5308L43.6538 31.4411ZM40.4653 32.3809C40.8764 32.3809 41.2073 32.2293 41.458 31.9261C41.7187 31.623 41.839 31.2642 41.8189 30.8499L41.7738 30.38C41.7437 29.9455 41.5983 29.6019 41.3377 29.3493C41.077 29.0967 40.7461 28.9704 40.345 28.9704C39.9239 28.9704 39.583 29.1068 39.3223 29.3796C39.0616 29.6424 38.9313 30.0011 38.9313 30.4558C38.9313 30.9914 39.0716 31.4461 39.3524 31.82C39.6431 32.1939 40.0141 32.3809 40.4653 32.3809Z" fill="white"/>
<path d="M82.3134 9.25804C82.4012 10.4959 82.8398 11.8046 83.6294 13.1839C84.419 14.5633 85.3227 15.6067 86.3404 16.314C87.3757 17.0037 88.2179 17.154 88.8671 16.765C89.5339 16.3759 89.8234 15.5625 89.7357 14.3246C89.6479 13.069 89.2093 11.7604 88.4197 10.3987C87.6476 9.0193 86.744 7.98478 85.7087 7.29509C84.691 6.58773 83.8488 6.42857 83.182 6.81762C82.5152 7.20667 82.2257 8.02015 82.3134 9.25804ZM81.0764 16.6058C79.7078 15.2795 79.0234 13.6791 79.0234 11.8046C79.0234 9.91236 79.7078 8.30309 81.0764 6.97678C82.445 5.65046 84.0944 4.9873 86.0246 4.9873C87.9547 4.9873 89.6041 5.65046 90.9727 6.97678C92.3414 8.30309 93.0257 9.91236 93.0257 11.8046C93.0257 13.6791 92.3414 15.2795 90.9727 16.6058C89.6041 17.9321 87.9547 18.5953 86.0246 18.5953C84.0944 18.5953 82.445 17.9321 81.0764 16.6058Z" fill="white"/>
<path d="M71.8082 3.63411C71.4047 3.20968 71.2029 2.70568 71.2029 2.1221C71.2029 1.53853 71.4047 1.04337 71.8082 0.636631C72.2293 0.21221 72.7294 0 73.3085 0C73.8875 0 74.3788 0.21221 74.7824 0.636631C75.2035 1.04337 75.4141 1.53853 75.4141 2.1221C75.4141 2.70568 75.2035 3.20968 74.7824 3.63411C74.3788 4.04084 73.8875 4.24421 73.3085 4.24421C72.7294 4.24421 72.2293 4.04084 71.8082 3.63411ZM71.2029 6.71116C71.2029 6.35747 71.0713 6.06568 70.8081 5.83579L70.3606 5.46442C70.2553 5.376 70.2203 5.27874 70.2553 5.17263C70.308 5.04884 70.3957 4.98695 70.5185 4.98695H75.4141V16.8707C75.4141 17.2244 75.5544 17.5162 75.8352 17.7461L76.2826 18.1175C76.3704 18.2059 76.3879 18.312 76.3353 18.4358C76.3002 18.5419 76.2212 18.5949 76.0984 18.5949H70.5185C70.3957 18.5949 70.308 18.5419 70.2553 18.4358C70.2203 18.312 70.2553 18.2059 70.3606 18.1175L70.8081 17.7461C71.0713 17.5162 71.2029 17.2244 71.2029 16.8707V6.71116Z" fill="white"/>
<path d="M54.2331 6.71152C54.2331 6.35783 54.1015 6.06604 53.8383 5.83615L53.3909 5.46478C53.2856 5.37636 53.2505 5.27909 53.2856 5.17299C53.3383 5.0492 53.426 4.9873 53.5488 4.9873H58.4443V7.5073C58.883 6.71151 59.4182 6.09257 60.0499 5.65046C60.6991 5.20836 61.3834 4.9873 62.1028 4.9873C63.4013 4.9873 64.5067 5.65046 65.4191 6.97678C66.3316 8.30309 66.7878 9.90352 66.7878 11.778C66.7878 12.3439 66.779 14.0416 66.7615 16.8711C66.7615 17.2248 66.9018 17.5166 67.1826 17.7465L67.63 18.1178C67.7178 18.2063 67.7353 18.3124 67.6827 18.4361C67.6476 18.5423 67.5686 18.5953 67.4458 18.5953H61.8659C61.7431 18.5953 61.6554 18.5423 61.6027 18.4361C61.5676 18.3124 61.6027 18.2063 61.708 18.1178L62.1555 17.7465C62.4187 17.5166 62.5503 17.2248 62.5503 16.8711C62.5678 14.5545 62.5766 13.1751 62.5766 12.733C62.5415 10.7877 62.3572 9.39067 62.0239 8.54183C61.6905 7.6753 61.0325 7.24204 60.0499 7.24204C59.5586 7.24204 59.1725 7.52499 58.8918 8.09088C58.611 8.65678 58.4707 9.33762 58.4707 10.1334V16.8711C58.4707 17.2248 58.6023 17.5166 58.8655 17.7465L59.3129 18.1178C59.4006 18.2063 59.427 18.3124 59.3919 18.4361C59.3568 18.5423 59.2778 18.5953 59.155 18.5953H53.5488C53.426 18.5953 53.3383 18.5423 53.2856 18.4361C53.2505 18.3124 53.2856 18.2063 53.3909 18.1178L53.8383 17.7465C54.1015 17.5166 54.2331 17.2248 54.2331 16.8711V6.71152Z" fill="white"/>
<path d="M42.2133 5.8091C41.9501 6.35732 41.5729 7.14426 41.0816 8.16995C40.5903 9.19563 40.2218 9.97374 39.9761 10.5043C39.748 11.0171 39.4761 11.6272 39.1602 12.3346C38.8619 13.0243 38.6426 13.599 38.5022 14.0588C38.3618 14.5009 38.2741 14.8899 38.239 15.2259C38.1337 16.3577 38.5636 17.0828 39.5287 17.4011C40.4411 17.7017 41.3886 17.5426 42.3713 16.9236C43.582 16.1809 44.1786 15.1022 44.161 13.6874C44.161 13.2807 44.0996 12.8563 43.9768 12.4142L42.2133 5.8091ZM49.4513 16.3931C49.6444 17.0474 50.0304 17.5603 50.6094 17.9316L50.8726 18.0908C50.9954 18.1615 51.0305 18.2676 50.9779 18.4091C50.9428 18.5329 50.8638 18.5948 50.741 18.5948H44.6611C44.5207 18.5948 44.433 18.5329 44.3979 18.4091C44.3628 18.2676 44.3979 18.1704 44.5032 18.1173C44.7664 17.9405 44.9506 17.7106 45.0559 17.4276C45.1612 17.1447 45.1787 16.8529 45.1085 16.5523L44.7927 15.4382C44.547 16.1102 44.1786 16.6937 43.6873 17.1889C43.2135 17.6841 42.6959 18.0466 42.1344 18.2765C41.5729 18.4887 40.9851 18.5948 40.3709 18.5948C39.7744 18.5771 39.2304 18.4533 38.7391 18.2234C38.2478 17.9758 37.8354 17.5956 37.5021 17.0828C37.1862 16.5699 37.0108 15.9598 36.9757 15.2525C36.9581 14.6866 37.1599 13.8908 37.581 12.8651C38.0197 11.8394 38.783 10.2125 39.8709 7.98426C40.9763 5.75605 41.8712 3.89037 42.5555 2.38721C42.6959 2.06889 42.7134 1.74174 42.6081 1.40574C42.5204 1.06974 42.3274 0.804472 42.0291 0.609947L41.8712 0.530367C41.7484 0.45963 41.7045 0.362367 41.7396 0.238578C41.7747 0.0971042 41.8624 0.0263672 42.0028 0.0263672H46.214C46.3368 0.0263672 46.4158 0.0971042 46.4509 0.238578C46.486 0.362367 46.4509 0.45963 46.3456 0.530367L46.0034 0.742578C45.7402 0.901736 45.5472 1.13163 45.4244 1.43226C45.3191 1.71521 45.3103 2.007 45.3981 2.30763L49.4513 16.3931Z" fill="white"/>
<path d="M15.9795 6.66211C23.3285 7.13333 29.1396 13.0902 29.1396 20.3691L29.1348 20.7236C28.9415 28.1461 22.7053 34.1053 15.04 34.1055V29.3369C7.81089 28.8734 2.07005 23.1031 1.88477 15.9863L1.87988 15.6318C1.87988 8.04531 8.19246 1.89474 15.9795 1.89453V6.66211ZM16.54 9.77051C21.9349 10.4758 26.1298 14.9282 26.1299 20.3682C26.1299 22.8433 25.1769 26.2694 21.9111 28.7891L21.5879 29.0293L21.5234 29.0713C21.1941 29.261 20.7679 29.1744 20.541 28.8594C20.3142 28.5443 20.3671 28.1125 20.6514 27.8604L20.7119 27.8125L20.9912 27.6035C23.8183 25.4232 24.6299 22.4819 24.6299 20.3682C24.6298 15.8004 21.1431 11.9742 16.54 11.2822V32.5186C22.8197 31.7968 27.6394 26.6024 27.6396 20.3691C27.6396 14.1357 22.8199 8.93954 16.54 8.21777V9.77051ZM14.4795 3.48047C8.19965 4.20223 3.37988 9.39837 3.37988 15.6318C3.38012 21.8651 8.19986 27.0595 14.4795 27.7812V3.48047Z" fill="#C2EE10"/>
</g>
</svg>
