<svg width="20" height="20" viewBox="0 0 20 20" fill="none" xmlns="http://www.w3.org/2000/svg">
<rect width="20" height="20" rx="4" fill="#C2EE10"/>
<mask id="mask0_2020_2031" style="mask-type:alpha" maskUnits="userSpaceOnUse" x="3" y="3" width="14" height="14">
<rect x="3" y="3" width="14" height="14" fill="#C2EE10"/>
</mask>
<g mask="url(#mask0_2020_2031)">
<path d="M8.73475 7.36C8.54712 7.77333 8.27817 8.36667 7.92791 9.14C7.57765 9.91333 7.31496 10.5 7.13983 10.9C6.97721 11.2867 6.78332 11.7467 6.55815 12.28C6.34549 12.8 6.18913 13.2333 6.08905 13.58C5.98898 13.9133 5.92643 14.2067 5.90141 14.46C5.82636 15.3133 6.13284 15.86 6.82084 16.1C7.47132 16.3267 8.14682 16.2067 8.84734 15.74C9.71047 15.18 10.1358 14.3667 10.1233 13.3C10.1233 12.9933 10.0795 12.6733 9.99193 12.34L8.73475 7.36ZM13.8948 15.34C14.0324 15.8333 14.3076 16.22 14.7204 16.5L14.9081 16.62C14.9956 16.6733 15.0206 16.7533 14.9831 16.86C14.9581 16.9533 14.9018 17 14.8142 17H10.4798C10.3797 17 10.3172 16.9533 10.2922 16.86C10.2671 16.7533 10.2922 16.68 10.3672 16.64C10.5548 16.5067 10.6862 16.3333 10.7612 16.12C10.8363 15.9067 10.8488 15.6867 10.7988 15.46L10.5736 14.62C10.3985 15.1267 10.1358 15.5667 9.78553 15.94C9.44778 16.3133 9.07876 16.5867 8.67846 16.76C8.27817 16.92 7.85911 17 7.42129 17C6.99597 16.9867 6.60819 16.8933 6.25793 16.72C5.90767 16.5333 5.6137 16.2467 5.37603 15.86C5.15086 15.4733 5.02577 15.0133 5.00075 14.48C4.98824 14.0533 5.1321 13.4533 5.43232 12.68C5.74505 11.9067 6.2892 10.68 7.06477 9C7.85285 7.32 8.49082 5.91333 8.97868 4.78C9.07876 4.54 9.09127 4.29333 9.01621 4.04C8.95367 3.78667 8.81606 3.58667 8.60341 3.44L8.49082 3.38C8.40326 3.32667 8.37199 3.25333 8.39701 3.16C8.42202 3.05333 8.48457 3 8.58464 3H11.5869C11.6744 3 11.7307 3.05333 11.7557 3.16C11.7808 3.25333 11.7557 3.32667 11.6807 3.38L11.4367 3.54C11.2491 3.66 11.1115 3.83333 11.0239 4.06C10.9489 4.27333 10.9426 4.49333 11.0052 4.72L13.8948 15.34Z" fill="#020202"/>
</g>
</svg>
